<svg width="388" height="175" viewBox="0 0 388 175" fill="none" xmlns="http://www.w3.org/2000/svg">
<path d="M58.24 50.1044L96.2919 65.8144C96.7168 65.9898 96.6782 66.5843 96.2732 66.7254L96.1876 66.7469L70.3911 71.1217C70.2894 71.1389 70.1848 71.124 70.0925 71.0781L31.1819 51.7248C30.7266 51.4983 30.8772 50.8139 31.3853 50.7996L58.0405 50.0681C58.1088 50.0662 58.1768 50.0783 58.24 50.1044Z" fill="#864E25" stroke="#211309" stroke-width="0.598473"/>
<path d="M37.3091 30.5049C37.1468 28.7544 38.4489 27.2098 40.2016 27.0737L49.4886 26.3523C51.2567 26.215 52.7897 27.5638 52.8785 29.335L53.9912 51.5155C54.0882 53.4494 52.4338 55.0121 50.5086 54.8052L42.0134 53.8921C40.523 53.7319 39.3519 52.5436 39.2135 51.0509L37.3091 30.5049Z" fill="#864E25"/>
<path d="M71.4085 15.7846C71.9957 14.1471 73.7992 13.2956 75.4368 13.8828L84.332 17.0725C85.9696 17.6597 86.8211 19.4632 86.2338 21.1008L72.5127 59.3656C71.8417 61.2367 69.6267 62.0262 67.9235 61.0013L59.6663 56.0326C58.3797 55.2584 57.8185 53.6838 58.3253 52.2704L71.4085 15.7846Z" fill="#864E25"/>
<path d="M105.228 23.4353C106.448 22.1947 108.442 22.1776 109.683 23.3972L116.388 29.9885C117.642 31.221 117.644 33.2411 116.393 34.4763L82.5485 67.8927C81.6768 68.7534 80.3851 69.0306 79.237 68.6035L70.3118 65.2829C68.1723 64.487 67.5635 61.7505 69.1638 60.1225L105.228 23.4353Z" fill="#864E25"/>
<path d="M20.1331 77.1081C20.2788 76.643 20.8076 76.4205 21.2419 76.6416L51.0569 91.8202C52.381 92.4943 53.9961 92.1508 54.9313 90.9962L64.0599 79.7254C64.5998 79.0589 65.6651 79.6134 65.4289 80.4379L55.0546 116.651C54.5109 118.549 52.3755 119.484 50.6117 118.598L15.4438 100.918C14.065 100.225 13.3914 98.635 13.8526 97.1624L20.1331 77.1081Z" fill="#F4F0EA" stroke="#211309" stroke-width="0.598473" stroke-linejoin="round"/>
<path d="M25.1883 53.325C25.4275 53.0923 25.7874 53.0356 26.0865 53.1835L66.0567 72.9466C66.5222 73.1767 66.6414 73.7865 66.2969 74.175L54.0061 88.0354C53.0485 89.1153 51.4795 89.4062 50.1985 88.7414L14.0223 69.9687C12.1155 68.9792 11.7368 66.4133 13.2765 64.9152L25.1883 53.325Z" fill="#F4F0EA" stroke="#211309" stroke-width="0.598473" stroke-linejoin="round"/>
<path d="M70.0554 75.2681C70.1346 74.9726 70.3778 74.7497 70.679 74.6965L92.8112 70.7844C95.0815 70.3831 97 72.4759 96.4033 74.7028L86.0548 113.324C85.7491 114.465 84.8311 115.338 83.6768 115.588L62.7948 120.095C60.4914 120.592 58.4777 118.477 59.0876 116.201L70.0554 75.2681Z" fill="#864E25" stroke="#211309" stroke-width="0.598473"/>
<path d="M99.1599 75.2792C99.2862 74.8086 99.9487 74.7932 100.097 75.2573L103.659 86.4451C104.202 88.1506 103.057 89.9291 101.28 90.141L95.6927 90.8074C95.3498 90.8481 95.0737 90.529 95.1631 90.1954L99.1599 75.2792Z" fill="#864E25" stroke="#211309" stroke-width="0.598473"/>
<path d="M133.417 106.648C130.618 106.648 127.903 106.277 125.273 105.535C123.221 104.922 121.484 104.172 120.064 103.285C119.421 102.884 119.22 102.062 119.532 101.371L120.954 98.2155C121.381 97.2696 122.572 96.9588 123.478 97.4649C124.595 98.0894 125.834 98.621 127.195 99.0599C129.286 99.7344 131.377 100.072 133.468 100.072C135.795 100.072 137.514 99.7344 138.627 99.0599C139.74 98.3517 140.297 97.4243 140.297 96.2777C140.297 95.4346 139.959 94.7433 139.285 94.2037C138.644 93.6304 137.801 93.1751 136.756 92.8379C135.744 92.5006 134.361 92.1297 132.608 91.725C129.91 91.0842 127.701 90.4435 125.981 89.8027C124.261 89.162 122.777 88.1334 121.529 86.717C120.315 85.3006 119.708 83.412 119.708 81.0514C119.708 78.9942 120.265 77.1394 121.378 75.4869C122.49 73.8008 124.16 72.4687 126.386 71.4907C128.645 70.5127 131.394 70.0237 134.631 70.0237C136.891 70.0237 139.099 70.2935 141.258 70.8331C142.906 71.2451 144.397 71.7949 145.731 72.4824C146.436 72.8458 146.705 73.6963 146.407 74.4311L145.094 77.6604C144.723 78.5729 143.636 78.9458 142.745 78.5255C140.023 77.2417 137.302 76.5998 134.58 76.5998C132.287 76.5998 130.584 76.9708 129.471 77.7127C128.392 78.4546 127.853 79.4326 127.853 80.6467C127.853 81.8608 128.476 82.7713 129.724 83.3783C131.006 83.9516 132.945 84.5249 135.542 85.0982C138.24 85.739 140.448 86.3797 142.168 87.0205C143.888 87.6613 145.355 88.673 146.569 90.0556C147.817 91.4383 148.441 93.31 148.441 95.6707C148.441 97.6941 147.868 99.5489 146.721 101.235C145.608 102.888 143.922 104.203 141.662 105.181C139.403 106.159 136.654 106.648 133.417 106.648Z" fill="#F4F0EA"/>
<path d="M179.956 84.111C177.96 82.2252 175.325 81.2823 172.053 81.2823C170.351 81.2823 168.78 81.5494 167.34 82.0837C167.181 82.1393 167.024 82.1978 166.87 82.2591C165.535 82.7913 163.658 81.9079 163.658 80.47V72.0417V48.6635C163.658 47.7631 162.929 47.0328 162.029 47.0317L157.634 47.0258C156.732 47.0246 156 47.7523 156 48.6544V72.0417V105.392C156 106.293 156.731 107.024 157.632 107.024H162.026C162.928 107.024 163.658 106.293 163.658 105.392V94.483C163.658 92.22 164.231 90.5228 165.376 89.3913C166.522 88.2283 168.06 87.6469 169.991 87.6469C171.725 87.6469 173.051 88.1498 173.967 89.1555C174.884 90.1299 175.342 91.6228 175.342 93.6344V105.392C175.342 106.293 176.072 107.024 176.974 107.024H181.368C182.269 107.024 183 106.293 183 105.392V92.5029C183 88.7941 181.985 85.9968 179.956 84.111Z" fill="#F4F0EA"/>
<path d="M219.632 93.1371C219.632 93.1882 219.619 93.394 219.593 93.7546C219.532 94.6051 218.822 95.2617 217.969 95.2617H200.921C199.879 95.2617 199.091 96.2467 199.602 97.1553C200.066 97.9796 200.706 98.6805 201.522 99.258C202.905 100.236 204.625 100.725 206.682 100.725C208.098 100.725 209.346 100.523 210.425 100.118C211.051 99.8712 211.651 99.5498 212.224 99.1535C212.977 98.6328 214.021 98.6481 214.642 99.3211L216.716 101.571C217.281 102.183 217.302 103.133 216.681 103.689C214.182 105.929 210.781 107.048 206.479 107.048C203.411 107.048 200.696 106.458 198.335 105.278C195.974 104.064 194.153 102.394 192.872 100.27C191.59 98.1451 190.95 95.7338 190.95 93.0359C190.95 90.3718 191.573 87.9774 192.821 85.8528C194.103 83.6944 195.84 82.0251 198.032 80.8448C200.257 79.6307 202.736 79.0237 205.468 79.0237C208.132 79.0237 210.543 79.597 212.701 80.7436C214.86 81.8902 216.546 83.5427 217.76 85.701C219.008 87.8256 219.632 90.3043 219.632 93.1371ZM205.518 84.9928C203.731 84.9928 202.23 85.4987 201.016 86.5104C200.261 87.14 199.688 87.9134 199.298 88.8304C198.907 89.7508 199.692 90.6584 200.692 90.6584H210.288C211.29 90.6584 212.076 89.7467 211.674 88.8288C211.284 87.939 210.716 87.183 209.97 86.561C208.756 85.5155 207.272 84.9928 205.518 84.9928Z" fill="#F4F0EA"/>
<path d="M235 105.392V62.0148V7.02368H227V62.0148V105.392C227 106.293 227.731 107.024 228.632 107.024H233.368C234.269 107.024 235 106.293 235 105.392Z" fill="#F4F0EA"/>
<path d="M254.037 79.4494C254.037 80.1083 254.571 80.6424 255.23 80.6424H259.473C260.374 80.6424 261.105 81.373 261.105 82.2742V85.2349C261.105 86.1361 260.374 86.8667 259.473 86.8667H255.873C254.972 86.8667 254.241 87.5973 254.241 88.4985V147.392C254.241 148.293 253.511 149.024 252.61 149.024H247.883C246.982 149.024 246.251 148.293 246.251 147.392V88.4985C246.251 87.5973 245.521 86.8667 244.619 86.8667H243.632C242.731 86.8667 242 86.1361 242 85.2349V82.2742C242 81.373 242.731 80.6424 243.632 80.6424H245.006C245.694 80.6424 246.251 80.0851 246.251 79.3975C246.251 76.2162 247.173 73.6919 249.017 71.8246C250.895 69.9573 253.524 69.0237 256.905 69.0237C258.1 69.0237 259.227 69.162 260.285 69.4386C260.872 69.5686 261.404 69.7334 261.883 69.9331C262.571 70.2205 262.824 71.0192 262.572 71.7214L261.627 74.3593C261.262 75.3779 259.997 75.7543 258.939 75.5309C258.537 75.446 258.115 75.4036 257.673 75.4036C255.249 75.4036 254.037 76.7522 254.037 79.4494Z" fill="#F4F0EA"/>
<path d="M278 105.392V78.772V28.6556C278 27.7544 277.269 27.0238 276.368 27.0238L271.722 27.0237C270.822 27.0237 270.092 27.7525 270.09 28.6526L270 78.772V105.392C270 106.293 270.731 107.024 271.632 107.024H276.368C277.269 107.024 278 106.293 278 105.392Z" fill="#F4F0EA"/>
<path d="M289.044 96.3994C291.04 98.241 293.675 99.1618 296.947 99.1618C298.649 99.1618 300.22 98.9009 301.66 98.3791C301.831 98.3209 301.998 98.2595 302.163 98.1948C303.493 97.6726 305.342 98.5541 305.342 99.9828V108.186V174.014L313 174.024V108.186V75.6555C313 74.7543 312.269 74.0237 311.368 74.0237H306.974C306.072 74.0237 305.342 74.7543 305.342 75.6555V86.2705C305.342 88.4804 304.769 90.1379 303.624 91.2428C302.478 92.3785 300.94 92.9463 299.009 92.9463C297.275 92.9463 295.949 92.4552 295.033 91.473C294.116 90.5215 293.658 89.0636 293.658 87.0992V75.6555C293.658 74.7543 292.928 74.0237 292.026 74.0237H287.632C286.731 74.0237 286 74.7543 286 75.6555V88.2042C286 91.826 287.015 94.5578 289.044 96.3994Z" fill="#F4F0EA"/>
</svg>
