<svg width="123" height="133" viewBox="0 0 123 133" fill="none" xmlns="http://www.w3.org/2000/svg">
<path d="M58.24 51.0807L96.2919 66.7907C96.7168 66.9661 96.6782 67.5606 96.2732 67.7017L96.1876 67.7232L70.3911 72.098C70.2894 72.1152 70.1848 72.1003 70.0925 72.0544L31.1819 52.7011C30.7266 52.4747 30.8772 51.7902 31.3853 51.7759L58.0405 51.0444C58.1088 51.0425 58.1768 51.0546 58.24 51.0807Z" fill="#864E25" stroke="#211309" stroke-width="0.598473"/>
<path d="M37.3091 31.4812C37.1468 29.7307 38.4489 28.1862 40.2016 28.05L49.4886 27.3286C51.2567 27.1913 52.7897 28.5401 52.8785 30.3113L53.9912 52.4918C54.0882 54.4257 52.4338 55.9884 50.5086 55.7815L42.0134 54.8684C40.523 54.7082 39.3519 53.5199 39.2135 52.0273L37.3091 31.4812Z" fill="#864E25"/>
<path d="M71.4085 16.761C71.9957 15.1234 73.7992 14.2719 75.4368 14.8591L84.332 18.0488C85.9696 18.636 86.8211 20.4395 86.2338 22.0771L72.5127 60.3419C71.8417 62.213 69.6267 63.0025 67.9235 61.9776L59.6663 57.0089C58.3797 56.2347 57.8185 54.6601 58.3253 53.2467L71.4085 16.761Z" fill="#864E25"/>
<path d="M105.228 24.4116C106.448 23.171 108.442 23.1539 109.683 24.3735L116.388 30.9648C117.642 32.1973 117.644 34.2174 116.393 35.4526L82.5485 68.869C81.6768 69.7297 80.3851 70.007 79.237 69.5798L70.3118 66.2593C68.1723 65.4633 67.5635 62.7268 69.1638 61.0988L105.228 24.4116Z" fill="#864E25"/>
<path d="M20.1331 78.0844C20.2788 77.6193 20.8076 77.3968 21.2419 77.6179L51.0569 92.7965C52.381 93.4706 53.9961 93.1271 54.9313 91.9725L64.0599 80.7017C64.5998 80.0352 65.6651 80.5897 65.4289 81.4143L55.0546 117.627C54.5109 119.525 52.3755 120.461 50.6117 119.574L15.4438 101.894C14.065 101.201 13.3914 99.6114 13.8526 98.1387L20.1331 78.0844Z" fill="#F4F0EA" stroke="#211309" stroke-width="0.598473" stroke-linejoin="round"/>
<path d="M25.1883 54.3013C25.4275 54.0686 25.7874 54.0119 26.0865 54.1598L66.0567 73.9229C66.5222 74.153 66.6414 74.7628 66.2969 75.1513L54.0061 89.0117C53.0485 90.0916 51.4795 90.3825 50.1985 89.7177L14.0223 70.945C12.1155 69.9555 11.7368 67.3896 13.2765 65.8915L25.1883 54.3013Z" fill="#F4F0EA" stroke="#211309" stroke-width="0.598473" stroke-linejoin="round"/>
<path d="M70.0554 76.2445C70.1346 75.949 70.3778 75.7261 70.679 75.6728L92.8112 71.7607C95.0815 71.3594 97 73.4522 96.4033 75.6791L86.0548 114.3C85.7491 115.441 84.8311 116.315 83.6768 116.564L62.7948 121.071C60.4914 121.569 58.4777 119.453 59.0876 117.177L70.0554 76.2445Z" fill="#864E25" stroke="#211309" stroke-width="0.598473"/>
<path d="M99.1599 76.2555C99.2862 75.7849 99.9487 75.7695 100.097 76.2336L103.659 87.4215C104.202 89.1269 103.057 90.9054 101.28 91.1174L95.6927 91.7838C95.3498 91.8244 95.0737 91.5053 95.1631 91.1717L99.1599 76.2555Z" fill="#864E25" stroke="#211309" stroke-width="0.598473"/>
</svg>
